HIERARCHY
ROOT hip
{
	OFFSET 0.000000 0.000000 0.000000 
	CHANNELS 6 Xposition Yposition Zposition Xrotation Zrotation Yrotation
	JOINT abdomen
	{
		OFFSET 0.000000 3.402643 0.000000 
		CHANNELS 3 Xrotation Zrotation Yrotation
		JOINT chest
		{
			OFFSET 0.000000 8.438565 -0.680529 
			CHANNELS 3 Xrotation Zrotation Yrotation
			JOINT neck
			{
				OFFSET 0.000000 10.207942 -0.272212 
				CHANNELS 3 Xrotation Zrotation Yrotation
				JOINT head
				{
					OFFSET 0.000000 3.130431 0.000000 
					CHANNELS 3 Xrotation Zrotation Yrotation
					End Site
					{
						OFFSET 0.000000 3.130435 0.000000 
					}
				}
			}
			JOINT lCollar
			{
				OFFSET 3.470700 6.669187 -0.816635 
				CHANNELS 3 Yrotation Zrotation Xrotation
				JOINT lShldr
				{
					OFFSET 3.198488 0.000000 0.000000 
					CHANNELS 3 Zrotation Yrotation Xrotation
					JOINT lForeArm
					{
						OFFSET 10.139888 0.000000 0.000000 
						CHANNELS 3 Yrotation Zrotation Xrotation
						JOINT lHand
						{
							OFFSET 8.370511 0.000000 0.000000 
							CHANNELS 3 Zrotation Yrotation Xrotation
							End Site
							{
								OFFSET 4.083176 0.000000 0.000000 
							}
						}
					}
				}
			}
			JOINT rCollar
			{
				OFFSET -3.470700 6.669187 -0.816635 
				CHANNELS 3 Yrotation Zrotation Xrotation
				JOINT rShldr
				{
					OFFSET -3.198488 0.000000 0.000000 
					CHANNELS 3 Zrotation Yrotation Xrotation
					JOINT rForeArm
					{
						OFFSET -10.139888 0.000000 0.000000 
						CHANNELS 3 Yrotation Zrotation Xrotation
						JOINT rHand
						{
							OFFSET -8.370511 0.000000 0.000000 
							CHANNELS 3 Zrotation Yrotation Xrotation
							End Site
							{
								OFFSET -4.083176 0.000000 0.000000 
							}
						}
					}
				}
			}
		}
	}
	JOINT lThigh
	{
		OFFSET 5.308129 -1.633274 1.361059 
		CHANNELS 3 Xrotation Zrotation Yrotation
		JOINT lShin
		{
			OFFSET -2.041588 -20.007561 0.000000 
			CHANNELS 3 Xrotation Zrotation Yrotation
			JOINT lFoot
			{
				OFFSET 0.000000 -19.190928 -1.224953 
				CHANNELS 3 Xrotation Yrotation Zrotation
				End Site
				{
					OFFSET 0.000000 -2.449906 4.627600 
				}
			}
		}
	}
	JOINT rThigh
	{
		OFFSET -5.308129 -1.633274 1.361059 
		CHANNELS 3 Xrotation Zrotation Yrotation
		JOINT rShin
		{
			OFFSET 2.041588 -20.007561 0.000000 
			CHANNELS 3 Xrotation Zrotation Yrotation
			JOINT rFoot
			{
				OFFSET 0.000000 -19.190928 -1.224953 
				CHANNELS 3 Xrotation Yrotation Zrotation
				End Site
				{
					OFFSET 0.000000 -2.449906 4.627600 
				}
			}
		}
	}
}
MOTION
Frames: 6
Frame Time: 0.033333
-0.193763 32.774269 -0.193763 1.307359 -0.066615 -87.520401 51.562576 -0.006897 0.004284 15.478624 -0.890446 -0.006491 -8.544922 -0.001505 -0.009645 9.814464 0.214848 -0.258842 2.000000 -2.000000 0.000000 -68.228989 -99.761551 -13.535054 -9.958676 -0.888126 8.314593 -9.432163 14.415765 15.176612 -2.000000 2.000000 0.000000 -15.432512 75.955383 -81.026230 23.427464 0.756873 8.369486 12.006914 -16.927853 -5.410117 -89.024689 30.572220 1.462528 123.063942 4.652628 -3.370442 -33.960026 6.761722 -0.951314 2.186364 -14.443200 -50.363079 92.325912 -2.687532 4.130060 59.024891 -5.908856 -35.994858 
-0.183745 32.769264 -0.183745 1.326447 -0.077220 -87.520424 51.611988 -0.032344 0.069826 15.478663 -0.632448 -0.003828 -8.544922 -0.001505 -0.009645 9.433612 0.351577 -0.287400 2.000000 -2.000000 0.000000 -69.348892 -100.127853 -11.306678 -9.910346 -0.888121 8.308354 -9.750084 14.850013 15.344668 -2.000000 2.000000 0.000000 -17.141279 75.960709 -80.677719 23.610361 0.754556 8.373720 12.051837 -17.416248 -5.471762 -89.266632 30.575861 1.182505 123.152435 4.662406 -3.352079 -33.939209 6.765939 -0.937577 2.167719 -14.268112 -50.343723 92.306023 -2.678126 4.148592 59.067368 -5.908457 -35.996044 
-0.168719 32.769264 -0.168719 1.345960 -0.078068 -87.520454 51.768917 -0.072732 0.134489 15.479043 -0.290107 -0.004380 -8.544922 -0.001505 -0.009645 9.052755 0.498084 -0.317686 2.000000 -2.000000 0.000000 -70.531555 -100.512260 -8.640984 -10.802767 -0.880374 8.318933 -10.316784 15.306442 15.485286 -2.000000 2.000000 0.000000 -17.784533 75.982765 -78.958641 23.958202 0.748893 8.369884 11.835504 -17.738197 -5.535399 -89.523010 30.582323 0.863288 123.249901 4.662405 -3.360127 -33.937977 6.768799 -0.911823 2.157803 -14.033152 -50.338951 92.247459 -2.677547 4.147392 59.129742 -5.936771 -35.990452 
-0.153694 32.744267 -0.153694 1.365049 -0.088673 -87.520470 52.003716 -0.129056 0.220283 15.479947 0.118465 -0.008816 -8.544922 -0.001505 -0.009645 8.671885 0.644587 -0.349919 2.000000 -2.000000 0.000000 -71.663620 -100.872025 -5.705681 -11.891455 -0.868642 8.319446 -11.074527 15.764525 15.642801 -2.000000 2.000000 0.000000 -17.476452 76.027000 -76.057251 24.436932 0.746595 8.376113 11.382971 -17.924377 -5.615642 -89.824661 30.586351 0.519150 123.357346 4.673715 -3.357652 -33.898094 6.767428 -0.903638 2.117231 -13.787648 -50.350254 92.218170 -2.677523 4.146577 59.175018 -5.959978 -35.985600 
-0.138668 32.739262 -0.138668 1.384562 -0.089521 -87.520500 52.286858 -0.202825 0.313960 15.481348 0.545503 -0.005434 -8.544922 -0.001505 -0.009645 8.290994 0.781300 -0.384193 2.000000 -2.000000 0.000000 -72.669685 -101.243958 -2.615656 -13.093667 -0.853413 8.322585 -11.982270 16.226158 15.814758 -2.000000 2.000000 0.000000 -16.434740 76.041496 -72.251274 25.041674 0.745013 8.383787 10.743018 -17.974609 -5.687559 -90.163559 30.565496 0.165561 123.455399 4.664085 -3.354436 -33.856102 6.769032 -0.847102 2.067548 -13.523367 -50.349270 92.198639 -2.677493 4.146047 59.258873 -5.968046 -35.993103 
-0.113626 32.734264 -0.113626 1.404075 -0.090370 -87.520523 52.598625 -0.262170 0.431692 15.483240 0.972893 -0.004670 -8.544922 -0.001505 -0.009645 8.408179 1.142633 -0.783786 2.000000 -2.000000 0.000000 -73.715401 -101.542229 0.688760 -14.387527 -0.842397 8.327254 -13.037411 16.677492 15.976948 -2.000000 2.000000 0.000000 -14.644604 76.019386 -67.559235 25.745745 0.735401 8.389004 9.951662 -17.930660 -5.762438 -90.540245 30.553988 -0.263460 123.573189 4.672235 -3.338300 -33.833492 6.773530 -0.785835 2.027440 -13.229809 -50.346424 92.169716 -2.667723 4.145449 59.333279 -5.994983 -35.994205 
